# xmcd
#
# Track frame offsets:
# 150
# 11401
# 24269
# 41892
# 59346
# 75034
# 90914
# 110223
# 130043
# 146579
# 162270
# 177135
# 193682
# 224485
# 237401
# 254867
# 270625
# 285406
# 296921
# 316313
#
# Disc length: 4434 seconds
#
#
# Revision: 0
# Processed by: cddbd v1.4PL0 Copyright (c) Steve Scherf et al.
# Submitted via: HACP 1.18
#
DISCID=20115014
DTITLE=Emmylou Harris - The Trax - Charlotsville - 1991 [CD1]
DYEAR=1900
DGENRE=
TTITLE0=Roses in the snow
TTITLE1=Wheels of love
TTITLE2=Hello stranger
TTITLE3=Sweet dreams
TTITLE4=Here on Heartbreak Hill
TTITLE5=Amarillo
TTITLE6=Instrumental
TTITLE7=If I needed you
TTITLE8=Sweetheart of the rodeo
TTITLE9=Green pastures
TTITLE10=Get up John
TTITLE11=Bluebird wine
TTITLE12=Instrumental
TTITLE13=Intros
TTITLE14=Making believe
TTITLE15=Smoke along the tracks
TTITLE16=Leavin' Louisiana in broad daylight
TTITLE17=(encores)
TTITLE18=Sin City
TTITLE19=C'est la vie
EXTD=Emmylou harris and The Nash Ramblers\nThe Trax - Charlotsville July 11 1991\n
EXTT0=
EXTT1=
EXTT2=
EXTT3=
EXTT4=
EXTT5=
EXTT6=
EXTT7=
EXTT8=
EXTT9=
EXTT10=
EXTT11=
EXTT12=
EXTT13=
EXTT14=
EXTT15=
EXTT16=
EXTT17=
EXTT18=
EXTT19=
PLAYORDER=
